<?xml version="1.0" encoding="utf-8"?>
<svg id="master-artboard" viewBox="0 0 265 265" version="1.1" xmlns="http://www.w3.org/2000/svg" x="0px" y="0px" style="enable-background:new 0 0 1400 980;" width="265px" height="265px"><rect id="ee-background" x="0" y="0" width="265" height="265" style="fill: white; fill-opacity: 0; pointer-events: none;"/><defs><linearGradient id="linear-gradient" x1="661.01" y1="78.18" x2="726.41" y2="111.5" gradientUnits="userSpaceOnUse"><stop offset="0" stop-color="#f99d23"/><stop offset="0.59" stop-color="#f99d23"/><stop offset="0.9" stop-color="#201f2d"/></linearGradient><linearGradient id="linear-gradient-2" x1="621.48" y1="85.44" x2="703.35" y2="127.15" gradientUnits="userSpaceOnUse"><stop offset="0" stop-color="#f99d23"/><stop offset="0.72" stop-color="#f99d23"/><stop offset="1" stop-color="#201f2d"/></linearGradient></defs><title>harry_potter_icons_svg</title><g id="_2" data-name="2" transform="matrix(1.6065573692321777, 0, 0, 1.6065573692321777, -662.3265075683594, -50.98332214355469)"><path class="cls-2" d="M575,115a79.4,79.4,0,0,1-31,63c-0.33.27-.66,0.52-1,0.77l-1,.73a77.94,77.94,0,0,1-12,7.16q-1.48.72-3,1.38l-1,.42-1,.4c-1.31.54-2.65,1-4,1.49A79.29,79.29,0,0,1,505,194c-0.66.08-1.33,0.15-2,.2-0.33,0-.66.07-1,0.09s-0.66.06-1,.08c-1.82.13-3.65,0.19-5.5,0.19A79.08,79.08,0,0,1,448,178.8l-1-.76-1-.79A79.52,79.52,0,1,1,575,115Z" style="fill: rgb(255, 237, 210);"/><path class="cls-10" d="M543,172.25v6.56a79.48,79.48,0,0,1-96-.77v-5.66a13.5,13.5,0,0,1,3.66-9.38,13,13,0,0,1,9.49-4H530a12.83,12.83,0,0,1,9.45,4A13.36,13.36,0,0,1,543,172.25Zm-4.74-79.5A43.72,43.72,0,0,0,483.37,57a24.1,24.1,0,0,0,1.14-3.2c-4.84,1.21-6.2,4.16-6.51,6.33-0.25.29-.45,0.53-0.58,0.7a14,14,0,0,0-12.29-2.18,56.44,56.44,0,0,1,6.06,3.73c-0.19.11-.36,0.22-0.55,0.32-3,.14-12.08,1.12-16,8.06a16,16,0,0,1,7.57-1.13A43.05,43.05,0,0,0,451.81,93a45.17,45.17,0,0,0-.4,6.07,43.31,43.31,0,0,0,16.49,34.35,30.27,30.27,0,0,1-4.9-16.09v-7.05c1-14,11.89-27.18,17.9-33.66a37.5,37.5,0,0,0,18.81,16.8c-0.54-2.69.07-8.07,0.07-8.07s5.14,5.38,8.1,7.26a29,29,0,0,1-.53-5.64s6.65,8,19.65,14.25v16.11a30.27,30.27,0,0,1-4.9,16.09A43.77,43.77,0,0,0,538.26,92.75Z" style="fill: rgb(90, 89, 102);"/><path class="cls-11" d="M539.43,163H530v23.7q-2.45,1.2-5,2.2c-1.31.54-2.65,1-4,1.49V163H450.66a13,13,0,0,1,9.49-4H530A12.83,12.83,0,0,1,539.43,163ZM467.9,133.41a30.27,30.27,0,0,1-4.9-16.09V114.2A53.5,53.5,0,0,1,451.81,93a45.17,45.17,0,0,0-.4,6.07A43.31,43.31,0,0,0,467.9,133.41Zm70.82-34.35a43.79,43.79,0,0,0-.46-6.31A53.51,53.51,0,0,1,527,114.2v3.12a30.27,30.27,0,0,1-4.9,16.09A43.42,43.42,0,0,0,538.72,99.06Z" style="fill: rgb(54, 53, 61);"/><path class="cls-8" d="M527.55,135h-65.1c-3.87,0-7.45,2.71-7.45,6.58v14.21a3.48,3.48,0,0,0,2.26,3,3.14,3.14,0,0,0,1.19.25H502v35.29c0.34,0,.67,0,1-0.09,0.67-.05,1.34-0.12,2-0.2a79.29,79.29,0,0,0,16-3.61c1.35-.46,2.69-1,4-1.49l1-.4V159h5.55a3.59,3.59,0,0,0,3.45-3.21V141.58C535,137.71,531.42,135,527.55,135Z" style="fill: rgb(255, 206, 97);"/><path class="cls-6" d="M479,97a1,1,0,0,1-.86-1.51L481,90.75,476.25,92a1,1,0,0,1-1.12-1.46l4-7a1,1,0,0,1,1.74,1L478,89.44l4.79-1.23a1,1,0,0,1,1.11,1.48l-4.08,6.82A1,1,0,0,1,479,97Zm46,79v-9H503v9h22Zm-22,9v9h2a79.29,79.29,0,0,0,16-3.61c1.35-.46,2.69-1,4-1.49V185H503Zm-27-50H466v23h10V135Zm20,0H486v23h10V135Zm20,0H506v23h10V135Zm18,21v-14.6a6.56,6.56,0,0,0-6.25-6.38H526v23h5.75A2.24,2.24,0,0,0,534,156Z" style="fill: rgb(198, 38, 6);"/><path class="cls-4" d="M516.08,135l-45.56,5a13.17,13.17,0,0,0-11.43,10.3l-1.83,8.45a3.48,3.48,0,0,1-2.26-3V141.58c0-3.87,3.58-6.58,7.45-6.58h53.63Z" style="fill: rgb(255, 237, 210); opacity: 0.7;"/><path d="M 503 160 H 525 V 163 H 503 V 160 Z" class="cls-5" style="fill: rgb(249, 157, 35);"/><path class="cls-1" d="M483.7,107.94a1.61,1.61,0,1,1-1.61-1.61A1.61,1.61,0,0,1,483.7,107.94Zm24.22-1.61a1.61,1.61,0,1,0,1.61,1.61A1.61,1.61,0,0,0,507.92,106.32ZM495,121a7,7,0,0,0,4.75-1.91,1,1,0,0,0-1.35-1.48,4.94,4.94,0,0,1-6.8,0,1,1,0,0,0-1.35,1.48A7,7,0,0,0,495,121Zm0,10.49c4.28,0,8-1,9.69-2.71a1,1,0,1,0-1.41-1.42c-1.07,1.06-4.05,2.13-8.28,2.13s-7.21-1.07-8.28-2.13a1,1,0,1,0-1.41,1.42C487,130.5,490.72,131.54,495,131.54ZM576,115a80.5,80.5,0,1,1-80.5-80.53A80.61,80.61,0,0,1,576,115Zm-80.5,78.53c1.85,0,3.68-.09,5.5-0.21V160H460.15a12,12,0,0,0-8.77,3.69,12.53,12.53,0,0,0-3.38,8.69v5.11A78.06,78.06,0,0,0,495.5,193.56ZM460.15,158h71.4a2.61,2.61,0,0,0,2.45-2.21V141.58c0-3.44-3.35-5.58-6.45-5.58H462.45c-3.1,0-6.45,2.13-6.45,5.58v14.22a2.61,2.61,0,0,0,2.45,2.21h1.7Zm8.54-24h52.62a1,1,0,0,1-.06-1.12A29.3,29.3,0,0,0,526,117.32V110h-9.26a9.07,9.07,0,0,1-17.9-2.06c0-.08,0-0.16,0-0.25a7.17,7.17,0,0,0-7.71,0c0,0.08,0,.16,0,0.25a9.07,9.07,0,0,1-17.9,2.06H464c0,0.11,0,.23,0,0.34v7a29.3,29.3,0,0,0,4.75,15.56A1,1,0,0,1,468.69,134ZM463,70.35A42.25,42.25,0,0,0,452.8,93.12a44.23,44.23,0,0,0-.39,5.94,42.45,42.45,0,0,0,12,29.93A29.91,29.91,0,0,1,462,117.32v-7.05c0.75-10.48,7-22.33,18.17-34.34a1,1,0,0,1,1.61.2,36.77,36.77,0,0,0,16.75,15.7,46.59,46.59,0,0,1,.26-6.6,1,1,0,0,1,1.72-.58s3.27,3.42,6,5.68c-0.16-1.62-.16-3.13-0.16-3.37a1,1,0,0,1,1.77-.64c0.07,0.08,6.69,7.88,19.32,14a1,1,0,0,1,.56.9v16.11A29.9,29.9,0,0,1,525.54,129a42.38,42.38,0,0,0,12.18-30A42.59,42.59,0,0,0,495,56.47,43.31,43.31,0,0,0,483.63,58a1,1,0,0,1-1.17-1.38c0.16-.35.32-0.75,0.49-1.21a6.16,6.16,0,0,0-4,4.89,1,1,0,0,1-.23.51c-0.23.27-.42,0.5-0.54,0.65a1,1,0,0,1-1.36.22,13.53,13.53,0,0,0-8.92-2.57c1.77,1,3,1.89,3.84,2.48a1,1,0,0,1-.08,1.67l-0.17.1-0.42.24a1,1,0,0,1-.42.11c-2.28.11-9.23,0.81-13.44,5.22a17.12,17.12,0,0,1,5.05-.29A1,1,0,0,1,463,70.35Zm54,37.59s0,0,0,.06h9v-6.17a68.27,68.27,0,0,1-17.54-12.24,17.64,17.64,0,0,0,.39,2.77,1,1,0,0,1-1.51,1.09,50.76,50.76,0,0,1-6.75-5.86,25.36,25.36,0,0,0,.1,5.63,1,1,0,0,1-1.35,1.13,38.3,38.3,0,0,1-18.63-16c-9.44,10.42-15.07,20.61-16.45,29.71H473s0,0,0-.06a9.07,9.07,0,0,1,17.81-2.4,9.07,9.07,0,0,1,8.35,0A9.07,9.07,0,0,1,517,107.94Zm-9.07-7.07a7.07,7.07,0,1,0,7.07,7.07A7.08,7.08,0,0,0,507.92,100.87Zm-25.83,0a7.07,7.07,0,1,0,7.07,7.07A7.08,7.08,0,0,0,482.08,100.87ZM542,172.25a12.35,12.35,0,0,0-3.3-8.56A11.83,11.83,0,0,0,530,160h-3v26.94a78.52,78.52,0,0,0,15-8.69v-6ZM525,160H503v33.19a77.83,77.83,0,0,0,22-5.41V160Zm49-45a78.5,78.5,0,1,0-128,60.9v-3.54a14.52,14.52,0,0,1,3.94-10.07,13.69,13.69,0,0,1,5.52-3.53,4.13,4.13,0,0,1-1.46-3V141.58c0-4.18,3.79-7.58,8.45-7.58H467a44.25,44.25,0,0,1-16.64-34.94,46.29,46.29,0,0,1,.41-6.2,44.7,44.7,0,0,1,9.27-22.23A15,15,0,0,0,455,71.74a1,1,0,0,1-1.25-1.42c3.47-6.14,10.56-7.91,14.87-8.41-1-.66-2.35-1.45-4-2.33a1,1,0,0,1,.17-1.83,14.84,14.84,0,0,1,12.28,1.74c0.45-2.12,2-5.32,7.16-6.61a1,1,0,0,1,1.2,1.25q-0.23.79-.47,1.48a44.62,44.62,0,0,1,54.72,43.45A44.3,44.3,0,0,1,523,134h4.6c4.66,0,8.45,3.4,8.45,7.58v14.22a4.12,4.12,0,0,1-1.42,3,13.62,13.62,0,0,1,5.58,3.56,14.41,14.41,0,0,1,3.84,9.94v4.46A78.43,78.43,0,0,0,574,115Z" style="fill: rgb(32, 31, 45);"/></g></svg>