<?xml version="1.0" encoding="utf-8"?>
<svg id="master-artboard" viewBox="0 0 265 265" version="1.1" xmlns="http://www.w3.org/2000/svg" x="0px" y="0px" style="enable-background:new 0 0 1400 980;" width="265px" height="265px"><rect id="ee-background" x="0" y="0" width="265" height="265" style="fill: white; fill-opacity: 0; pointer-events: none;"/><defs><linearGradient id="linear-gradient" x1="661.01" y1="78.18" x2="726.41" y2="111.5" gradientUnits="userSpaceOnUse"><stop offset="0" stop-color="#f99d23"/><stop offset="0.59" stop-color="#f99d23"/><stop offset="0.9" stop-color="#201f2d"/></linearGradient><linearGradient id="linear-gradient-2" x1="621.48" y1="85.44" x2="703.35" y2="127.15" gradientUnits="userSpaceOnUse"><stop offset="0" stop-color="#f99d23"/><stop offset="0.72" stop-color="#f99d23"/><stop offset="1" stop-color="#201f2d"/></linearGradient></defs><title>harry_potter_icons_svg</title><g id="_6" data-name="6" transform="matrix(1.6065573692321777, 0, 0, 1.6065573692321777, -968.8382213843944, -357.6394958496094)"><path d="M 765 305.019989 A 79.5 79.529999 0 0 1 685.5 384.549988 A 79.5 79.529999 0 0 1 606 305.019989 A 79.5 79.529999 0 0 1 685.5 225.48999 A 79.5 79.529999 0 0 1 765 305.019989 Z" class="cls-2" style="fill: rgb(255, 237, 210);"/><path class="cls-6" d="M701.93,353.46l-47.24-.89,22.76-39.82,11.2-9.48,8.91,14.25Zm-26.77-42.71,12.4-10.5,2.78-27.79-42.12,52.43Zm46.46,22.64L700.88,320l3.89,31.93Z" style="fill: rgb(198, 38, 6);"/><path class="cls-13" d="M690.54,300.64l9.55,15.28,23.79,15.34c-0.71-8.72-5.24-47.93-30.17-62.33Z" style="fill: rgb(252, 93, 66);"/><path d="M 672.3599853515625 315.6099853515625 L 643.5499877929688 330.7300109863281 L 650.7899780273438 353.3399963378906 L 672.3599853515625 315.6099853515625 Z" class="cls-14" style="fill: rgb(140, 23, 3);"/><path class="cls-2" d="M671,263h0a11,11,0,0,0-11-11h0a11,11,0,0,0,11-11h0a11,11,0,0,0,11,11h0A11,11,0,0,0,671,263Z" style="fill: rgb(255, 237, 210);"/><path class="cls-15" d="M656,283h0a7,7,0,0,0-7-7h0a7,7,0,0,0,7-7h0a7,7,0,0,0,7,7h0A7,7,0,0,0,656,283Z" style="fill: rgb(255, 212, 105);"/><path d="M 737 298.5 A 4.5 4.5 0 0 1 732.5 303 A 4.5 4.5 0 0 1 728 298.5 A 4.5 4.5 0 0 1 732.5 294 A 4.5 4.5 0 0 1 737 298.5 Z" class="cls-15" style="fill: rgb(255, 212, 105);"/><path class="cls-1" d="M685.5,385.56A80.53,80.53,0,1,1,766,305,80.61,80.61,0,0,1,685.5,385.56Zm0-159.07A78.53,78.53,0,1,0,764,305,78.61,78.61,0,0,0,685.5,226.49ZM672,263h-2a10,10,0,0,0-10-10v-2a10,10,0,0,0,10-10h2a10,10,0,0,0,10,10v2A10,10,0,0,0,672,263Zm-7.21-11a12.07,12.07,0,0,1,6.21,6.21,12.07,12.07,0,0,1,6.21-6.21,12.07,12.07,0,0,1-6.21-6.21A12.07,12.07,0,0,1,664.79,252ZM657,283h-2a6,6,0,0,0-6-6v-2a6,6,0,0,0,6-6h2a6,6,0,0,0,6,6v2A6,6,0,0,0,657,283Zm-4.13-7a8,8,0,0,1,3.13,3.13,8,8,0,0,1,3.13-3.13,8,8,0,0,1-3.13-3.13A8,8,0,0,1,652.87,276ZM718,289h-2a6,6,0,0,0-6-6v-2a6,6,0,0,0,6-6h2a6,6,0,0,0,6,6v2A6,6,0,0,0,718,289Zm-4.13-7a8,8,0,0,1,3.13,3.13,8,8,0,0,1,3.13-3.13,8,8,0,0,1-3.13-3.13A8,8,0,0,1,713.87,282Zm18.63,22a5.5,5.5,0,1,1,5.5-5.5A5.51,5.51,0,0,1,732.5,304Zm0-9a3.5,3.5,0,1,0,3.5,3.5A3.5,3.5,0,0,0,732.5,295Zm-70,2a3.5,3.5,0,1,1,3.5-3.5A3.5,3.5,0,0,1,662.5,297Zm0-5a1.5,1.5,0,1,0,1.5,1.5A1.5,1.5,0,0,0,662.5,292Zm-11,9a2.5,2.5,0,1,1,2.5-2.5A2.5,2.5,0,0,1,651.5,301Zm0-3a0.5,0.5,0,1,0,.5.5A0.5,0.5,0,0,0,651.5,298Zm-8.5,4h-2v2h2v-2Zm10,10h-2v2h2v-2Z" style="fill: rgb(32, 31, 45);"/></g></svg>