<?xml version="1.0" encoding="utf-8"?>
<svg id="master-artboard" viewBox="0 0 265 265" version="1.1" xmlns="http://www.w3.org/2000/svg" x="0px" y="0px" style="enable-background:new 0 0 1400 980;" width="265px" height="265px"><rect id="ee-background" x="0" y="0" width="265" height="265" style="fill: white; fill-opacity: 0; pointer-events: none;"/><defs><linearGradient id="linear-gradient" x1="661.01" y1="78.18" x2="726.41" y2="111.5" gradientUnits="userSpaceOnUse"><stop offset="0" stop-color="#f99d23"/><stop offset="0.59" stop-color="#f99d23"/><stop offset="0.9" stop-color="#201f2d"/></linearGradient><linearGradient id="linear-gradient-2" x1="621.48" y1="85.44" x2="703.35" y2="127.15" gradientUnits="userSpaceOnUse"><stop offset="0" stop-color="#f99d23"/><stop offset="0.72" stop-color="#f99d23"/><stop offset="1" stop-color="#201f2d"/></linearGradient><linearGradient id="gradient-1" x1="661.01" y1="78.18" x2="726.41" y2="111.5" gradientUnits="userSpaceOnUse"><stop offset="0" stop-color="#f99d23"/><stop offset="0.59" stop-color="#f99d23"/><stop offset="0.9" stop-color="#201f2d"/></linearGradient><linearGradient id="gradient-2" x1="621.48" y1="85.44" x2="703.35" y2="127.15" gradientUnits="userSpaceOnUse"><stop offset="0" stop-color="#f99d23"/><stop offset="0.72" stop-color="#f99d23"/><stop offset="1" stop-color="#201f2d"/></linearGradient></defs><title>harry_potter_icons_svg</title><g id="_3" data-name="3" transform="matrix(1.6065573692321777, 0, 0, 1.6065573692321777, -967.5242614746094, -52.39354383945465)"><path d="M 765 115.019997 A 79.5 79.529999 0 0 1 685.5 194.549995 A 79.5 79.529999 0 0 1 606 115.019997 A 79.5 79.529999 0 0 1 685.5 35.489998 A 79.5 79.529999 0 0 1 765 115.019997 Z" class="cls-2" style="fill: rgb(255, 237, 210);"/><path class="cls-5" d="M737.24,146.09a22.06,22.06,0,0,1-.21,3.06,23,23,0,0,1-45.52,0,22,22,0,0,1-.21-3.06A23,23,0,1,1,737.24,146.09Z" style="fill: rgb(249, 157, 35);"/><path class="cls-16" d="M713.4,137l-3.48-15.89A116.33,116.33,0,0,0,684,69.67a33.9,33.9,0,0,1-3.4-4.65,2.68,2.68,0,0,1-.15-0.26l-0.9.43,0.86-.51A33.41,33.41,0,0,1,676,52.22l-2,.43A35.79,35.79,0,0,0,678.67,66h0a0.37,0.37,0,0,1,.2.21,35.19,35.19,0,0,0,3.6,4.85c0.49,0.56,1,1.09,1.44,1.66l-4.93,3-0.12,2.41,6.35-3.87q1.08,1.33,2.12,2.7l-8.69,5.27-0.12,2.42,10-6.08q1,1.37,2,2.78L678.3,88.76l-0.12,2.42L691.62,83q0.94,1.43,1.84,2.88L678,95.25c0,0.77,0,1.54.09,2.3l16.37-10q0.87,1.47,1.7,3l-17.64,10.74c0.11,0.71.24,1.41,0.4,2.1l18.2-11.08q0.8,1.51,1.56,3l-18.86,11.48c0.2,0.65.42,1.3,0.66,1.94L699.6,97.15q0.73,1.55,1.42,3.12l-19.14,11.66c0.28,0.61.58,1.2,0.9,1.79l19-11.58q0.66,1.59,1.28,3.21l-18.57,11.3c0.36,0.56.74,1.11,1.13,1.65l18.15-11q0.59,1.64,1.13,3.29L687.81,121c0.44,0.51.9,1,1.37,1.51l16.39-10q0.52,1.69,1,3.39l-14.8,9c0.53,0.46,1.08.91,1.64,1.34l13.71-8.35q0.44,1.74.83,3.5l-11.5,7c0.64,0.4,1.28.79,2,1.15l10-6.08,0.77,3.52-7.33,4.46,2,1.11,5.76-3.5,0.77,3.52-3.08,1.87,2,1.11,1.5-.92,0.62,2.82Z" style="opacity: 0.4; fill: url('#gradient-1');"/><path class="cls-17" d="M702.06,129.7l-10.56-12.37a116.34,116.34,0,0,0-47.16-33.16,33.82,33.82,0,0,1-5.19-2.5l-0.26-.17-0.59.81,0.52-.86a33.46,33.46,0,0,1-9.75-8.91l-1.61,1.18a35.42,35.42,0,0,0,10.33,9.44h0l0.35,0.22a35.89,35.89,0,0,0,5.5,2.64c0.69,0.26,1.38.54,2.07,0.82l-2.93,5,1,2.2,3.77-6.4q1.59,0.67,3.15,1.38l-5.17,8.76,1,2.18,5.95-10.09q1.54,0.74,3.06,1.53l-7.26,12.3,1,2.19,8-13.56q1.5,0.81,3,1.67l-9.17,15.55c0.36,0.67.74,1.33,1.15,2L662.05,95q1.46,0.88,2.9,1.81l-10.51,17.8c0.44,0.56.88,1.11,1.35,1.65l10.83-18.35q1.42,1,2.81,1.94l-11.21,19c0.49,0.49,1,1,1.5,1.39L671.06,101q1.38,1,2.73,2.09l-11.39,19.31c0.54,0.4,1.08.78,1.64,1.14l11.32-19.19q1.34,1.09,2.65,2.23l-11,18.74c0.59,0.32,1.18.63,1.79,0.91l10.79-18.3q1.3,1.17,2.56,2.37l-10.19,17.29c0.64,0.24,1.28.47,1.93,0.67l9.74-16.52q1.25,1.24,2.47,2.52l-8.81,14.93c0.69,0.15,1.39.29,2.09,0.41l8.15-13.82q1.21,1.32,2.38,2.68L683,130.08c0.75,0.06,1.51.09,2.27,0.1l5.94-10.08,2.35,2.75-4.35,7.38,2.31,0,3.42-5.8,2.34,2.74-1.82,3.1,2.31,0,0.89-1.51,1.88,2.2Z" style="fill: url('#gradient-2');"/><path class="cls-5" d="M654,125.65a1,1,0,0,1-.71-0.29,40.61,40.61,0,0,1-4.1-4.76,1,1,0,1,1,1.61-1.18,38.59,38.59,0,0,0,3.9,4.53A1,1,0,0,1,654,125.65Zm22,10.1a1,1,0,0,0-.81-1.16,38.86,38.86,0,0,1-16.73-7.38,1,1,0,1,0-1.22,1.59,40.88,40.88,0,0,0,17.6,7.76l0.18,0A1,1,0,0,0,676,135.75Zm-6,6.37a1,1,0,0,0-.87-1.12,19.39,19.39,0,0,1-7.91-2.87,1,1,0,1,0-1,1.72,21.26,21.26,0,0,0,8.69,3.14H669A1,1,0,0,0,670,142.12Z" style="fill: rgb(249, 157, 35);"/><path class="cls-3" d="M723.46,158.34a21.35,21.35,0,0,1-9.92-2.43,1.23,1.23,0,0,1,.16-2.25,18.38,18.38,0,0,0,8.78-29,22.82,22.82,0,0,0-8.21-1.52l-0.9,0a18.35,18.35,0,0,0,.6,20.76,3,3,0,0,1-.7,4.26l-0.11.08a3,3,0,0,1-4-.6,18.35,18.35,0,0,1,1-24.13,22.75,22.75,0,0,0-9.85,4.38,0.49,0.49,0,0,1-.21,0c-5.19,4-8.06,10.18-9.06,17.17v0s0.22,0,.26.05a18.89,18.89,0,0,1,2.66,1.6,18.11,18.11,0,0,1,1.47,1.19,17.54,17.54,0,0,1,4,5.41c0.09,0.19.19,0.38,0.27,0.57a18.63,18.63,0,0,1,1.52,7.44c0,0.74,0,1.46-.09,2.17,0,0.34-.2.67-0.26,1a0.32,0.32,0,0,1,.16.2h0a23.32,23.32,0,0,0,13.31,4.27,22.41,22.41,0,0,0,12.1-3.52,22.86,22.86,0,0,0,9.18-11A21.2,21.2,0,0,1,723.46,158.34Z" style="fill: rgb(255, 200, 90);"/><path class="cls-1" d="M735,153.73a20.23,20.23,0,0,1-11.56,3.61A20.48,20.48,0,0,1,714,155a0.24,0.24,0,0,1-.13-0.24,0.17,0.17,0,0,1,.13-0.17,19.38,19.38,0,0,0,9.26-30.6l-0.17-.21-0.25-.1a23.8,23.8,0,0,0-8.57-1.58l-1,0-0.51,0-0.28.43a19.35,19.35,0,0,0,.64,21.89,2,2,0,0,1,.36,1.54,2,2,0,0,1-.82,1.31l-0.11.07a2,2,0,0,1-2.68-.41,17.34,17.34,0,0,1,.94-22.82L713,122l-3,.54a23.85,23.85,0,0,0-10,4.36l-0.13,0-0.36.28C694.38,131,691.12,137.2,690,145v0.19a1,1,0,0,0,.93,1,17.33,17.33,0,0,1,2.4,1.45,16.7,16.7,0,0,1,1.39,1.12,16.45,16.45,0,0,1,3.79,5.11L698.6,154l0.16,0.34a17.57,17.57,0,0,1,1.44,7c0,0.84,0,1.48-.08,2.05a2.11,2.11,0,0,1-.1.37,4.87,4.87,0,0,0-.15.57l-0.08.61,0.22,0.18v0.14l0.44,0.3a24.26,24.26,0,0,0,13.86,4.44,23.29,23.29,0,0,0,12.63-3.67,24,24,0,0,0,9.58-11.47l1.2-3.06Zm-9.15,11c-0.24.15-.49,0.29-0.74,0.43l0.46,0.14-0.53,1.93c-0.84-.23-1.67-0.5-2.48-0.79a21.23,21.23,0,0,1-8.27,1.66A22.16,22.16,0,0,1,702,164.24a3.35,3.35,0,0,0,.12-0.56,22.37,22.37,0,0,0,.1-2.27,19.57,19.57,0,0,0-1.6-7.84c-0.06-.14-0.13-0.28-0.2-0.43l-0.08-.17a18.44,18.44,0,0,0-4.24-5.72,18.82,18.82,0,0,0-1.55-1.25,18.63,18.63,0,0,0-2.42-1.49A26,26,0,0,1,698,131.28c0-.86,0-1.69.1-2.47l2,0.16c0,0.09,0,.19,0,0.28,0.15-.12.28-0.26,0.43-0.38a1.15,1.15,0,0,0,.43-0.21l0,0a22,22,0,0,1,6.54-3.44,19.35,19.35,0,0,0,.89,23.06,4,4,0,0,0,5.34.82l0.15-.1a4,4,0,0,0,1.66-2.62,4,4,0,0,0-.72-3.06,17.35,17.35,0,0,1-.85-19.19,22,22,0,0,1,7.93,1.35,17.38,17.38,0,0,1-8.48,27.23,2.16,2.16,0,0,0-1.51,1.9,2.24,2.24,0,0,0,1.19,2.19,22.49,22.49,0,0,0,10.39,2.55,22.2,22.2,0,0,0,9.8-2.27A22.06,22.06,0,0,1,725.87,164.69Zm-0.74.43a22,22,0,0,1-2.56,1.28A37.09,37.09,0,0,1,698,131.54c0-.09,0-0.17,0-0.26a19.74,19.74,0,0,1,2.07-2c-0.05.73-.08,1.49-0.08,2.29A35.07,35.07,0,0,0,725.13,165.13Z" style="fill: rgb(32, 31, 45);"/><path class="cls-18" d="M714.27,123.12a23,23,0,0,0-23,23,22,22,0,0,0,.21,3.06,23,23,0,0,1,45.52,0,22.06,22.06,0,0,0,.21-3.06A23,23,0,0,0,714.27,123.12Z" style="fill: rgb(255, 237, 210); opacity: 0.6;"/><path class="cls-1" d="M685.5,195.56A80.53,80.53,0,1,1,766,115,80.61,80.61,0,0,1,685.5,195.56Zm0-159.07A78.53,78.53,0,1,0,764,115,78.61,78.61,0,0,0,685.5,36.49Zm56.77,102.93a1,1,0,0,0,.71-1.22A30.05,30.05,0,0,0,721.84,117a1,1,0,0,0-.52,1.93A28,28,0,0,1,741,138.72,1,1,0,0,0,742.27,139.43Zm2.25-8.54a1,1,0,0,0,.42-1.35,35,35,0,0,0-9.31-11.19,1,1,0,1,0-1.24,1.57,33,33,0,0,1,8.79,10.55A1,1,0,0,0,744.52,130.88Zm-30.24,39.18a24,24,0,1,1,24-24A24,24,0,0,1,714.27,170.06Zm0-45.94a22,22,0,1,0,22,22A22,22,0,0,0,714.27,124.12Z" style="fill: rgb(32, 31, 45);"/></g></svg>