<?xml version="1.0" encoding="utf-8"?>
<svg id="master-artboard" viewBox="0 0 265 265" version="1.1" xmlns="http://www.w3.org/2000/svg" x="0px" y="0px" style="enable-background:new 0 0 1400 980;" width="265px" height="265px"><rect id="ee-background" x="0" y="0" width="265" height="265" style="fill: white; fill-opacity: 0; pointer-events: none;"/><defs><linearGradient id="linear-gradient" x1="661.01" y1="78.18" x2="726.41" y2="111.5" gradientUnits="userSpaceOnUse"><stop offset="0" stop-color="#f99d23"/><stop offset="0.59" stop-color="#f99d23"/><stop offset="0.9" stop-color="#201f2d"/></linearGradient><linearGradient id="linear-gradient-2" x1="621.48" y1="85.44" x2="703.35" y2="127.15" gradientUnits="userSpaceOnUse"><stop offset="0" stop-color="#f99d23"/><stop offset="0.72" stop-color="#f99d23"/><stop offset="1" stop-color="#201f2d"/></linearGradient></defs><title>harry_potter_icons_svg</title><g id="_5" data-name="5" transform="matrix(1.6065573692321777, 0, 0, 1.6065573692321777, -663.592323530446, -357.63954390799887)"><path d="M 575 305.019989 A 79.5 79.529999 0 0 1 495.5 384.549988 A 79.5 79.529999 0 0 1 416 305.019989 A 79.5 79.529999 0 0 1 495.5 225.48999 A 79.5 79.529999 0 0 1 575 305.019989 Z" class="cls-2" style="fill: rgb(255, 237, 210);"/><path class="cls-10" d="M551.5,349H438.39a0.91,0.91,0,0,1-.33-1.7L460.12,337h69.76l21.94,10.3A0.91,0.91,0,0,1,551.5,349Zm-26.91-26.45-5.23-7.65,1.92-5.71a5.17,5.17,0,0,0,0-3.23l-3.42-11,2-3.45a2,2,0,0,0-.48-2.5l-4.35-3.45,3.13-7-6.3-11,5-2.13a4.5,4.5,0,0,0,2.7-3.66L520,258l20.49,6.88-8.89-13.72a2.9,2.9,0,0,0-.26-0.35,4.85,4.85,0,0,0-3.38-1.82l-8-.63L514,244.3l-0.84-4.55L501.87,243l-11.08,21h-4L479,281l-4.07,8.88,2.78,3-10,14.25a2.36,2.36,0,0,0,0,2.73l4.06,5.78-9,7.57a1.84,1.84,0,0,0-.48,2.18l2.06,4.59h61.31l-0.2-4.83A5.12,5.12,0,0,0,524.59,322.55Z" style="fill: rgb(90, 89, 102);"/><path class="cls-12" d="M531.31,250.85l-7.8.88a11.21,11.21,0,0,1-7.92-2.11l-4.2-3.08-5.29.93-9.74,21a3.76,3.76,0,0,1-2.75,2.11l-5.13.9L479,281l7.82-17h4l11.08-21,11.32-3.25L514,244.3l5.94,4.1,8,0.63A4.85,4.85,0,0,1,531.31,250.85Z" style="fill: rgb(255, 255, 255); opacity: 0.3;"/><path class="cls-11" d="M529.89,337H460.12l4.23-7h61.31Zm-23.32-34.29L496.63,286l-15.5-3.88L483.86,296l11.71,6.66L487,308.82l19.54-4.89,4.89,3.66,8.4-6.38-2-6.3ZM502,319l19.47,5.68L512,313l-9-1-30,12Z" style="fill: rgb(54, 53, 61);"/><path class="cls-1" d="M495.5,385.56A80.53,80.53,0,1,1,576,305,80.61,80.61,0,0,1,495.5,385.56Zm0-159.07A78.53,78.53,0,1,0,574,305,78.61,78.61,0,0,0,495.5,226.49Zm56.75,119.9-21.67-10.17-4.07-6.74a1,1,0,0,0-.14-0.18L526,325.13h0a5.41,5.41,0,0,0-.81-3.14l-4.72-7.24,1.76-5.23a6.21,6.21,0,0,0,.05-3.85L519,295l1.8-3.07a3,3,0,0,0-.72-3.79l-3.74-3,2.81-6.29a1,1,0,0,0,0-.91l-5.74-10,3.94-1.69a5.48,5.48,0,0,0,3.3-4.48l0.25-2.47,12.75,4.28h0l6.53,2.19a1,1,0,0,0,1.16-1.49l-8.89-13.72A5.8,5.8,0,0,0,528,248l-7.69-.61-5.38-3.71-0.76-4.14a1,1,0,0,0-1.26-.78L501.6,242a1,1,0,0,0-.61.49L490.18,263h-3.37a1,1,0,0,0-.91.58L474,289.49a1,1,0,0,0,.18,1.1l2.23,2.4-9.54,13.58a3.35,3.35,0,0,0,0,3.89l3.53,5-8.27,7a2.84,2.84,0,0,0-.76,3.37l1.85,4.11-3.8,6.29-21.78,10.17a1.87,1.87,0,0,0-1,2.13,1.79,1.79,0,0,0,1.75,1.48H551.5a1.79,1.79,0,0,0,1.75-1.48A1.87,1.87,0,0,0,552.25,346.39ZM463.42,324l9-7.57a1,1,0,0,0,.17-1.34l-4.06-5.78a1.35,1.35,0,0,1,0-1.57l10-14.25a1,1,0,0,0-.09-1.26l-2.32-2.5L487.45,265h3.33a1,1,0,0,0,.88-0.53l10.89-20.63,9.85-2.82,0.64,3.47a1,1,0,0,0,.42.64l5.94,4.09a1,1,0,0,0,.49.17l8,0.63a3.81,3.81,0,0,1,2.88,1.72L538.06,263l-17.77-6h0l-6.13-2a1,1,0,0,0-.64,1.93l5.38,1.81-0.3,2.93a3.48,3.48,0,0,1-2.1,2.84l-5,2.14A1,1,0,0,0,511,268l6,10.53-2.92,6.53a1,1,0,0,0,.29,1.19l4.35,3.45a1,1,0,0,1,.23,1.22l-1.91,3.25-10.27,7.06-9.39-15.79a1,1,0,0,0-.62-0.46l-15.5-3.88a1,1,0,0,0-1.22,1.16l2.73,13.92a1,1,0,0,0,.49.68l10.35,5.89-7.28,5.2a1,1,0,0,0,.58,1.81,1,1,0,0,0,.24,0L506.34,305l4.5,3.38a1,1,0,0,0,1.2,0l7.27-5.51,1,3.38a4.21,4.21,0,0,1,0,2.61l-1.92,5.71a1,1,0,0,0,.12.88l5.23,7.65a4,4,0,0,1,.69,2.1l0.16,3.79H465l-1.8-4A0.85,0.85,0,0,1,463.42,324Zm55.27-23.15-7.24,5.5-4-3,9.92-6.82Zm-22.62,1-11.31-6.43-2.34-11.92L496,286.88l9.66,16.25-13.76,3.44,4.26-3A1,1,0,0,0,496.07,301.84ZM464.91,331h60.18l3,5H461.89Zm-26,17,21.42-10h69.32L551,348h-112Zm34.25-23,28.77-5,19.25,5.61a1,1,0,0,0,1.06-1.59l-9.47-11.68a1,1,0,0,0-.67-0.36l-9-1a1.05,1.05,0,0,0-.48.07l-30,12A1,1,0,0,0,473.17,325Zm30-12,8.34,0.93,7.2,8.87L502.28,318a1,1,0,0,0-.28,0h-0.17l-19.64,3.39Z" style="fill: rgb(32, 31, 45);"/></g></svg>