<?xml version="1.0" encoding="utf-8"?>
<svg id="master-artboard" viewBox="0 0 264.81768798828125 269.19720458984375" version="1.1" xmlns="http://www.w3.org/2000/svg" x="0px" y="0px" style="enable-background:new 0 0 1400 980;" width="264.81768798828125px" height="269.19720458984375px"><rect id="ee-background" x="0" y="0" width="264.81768798828125" height="269.19720458984375" style="fill: white; fill-opacity: 0; pointer-events: none;"/><g id="_1" data-name="1" transform="matrix(1.6065573692321777, 0, 0, 1.6065573692321777, -357.0324869155884, -50.47270202636719)"><path d="M 385 115.019997 A 79.5 79.529999 0 0 1 305.5 194.549995 A 79.5 79.529999 0 0 1 226 115.019997 A 79.5 79.529999 0 0 1 305.5 35.489998 A 79.5 79.529999 0 0 1 385 115.019997 Z" class="cls-2" style="fill: rgb(255, 237, 210);"/><path class="cls-8" d="M280,93.54h0a11,11,0,0,0-11-11h0a11,11,0,0,0,11-11h0a11,11,0,0,0,11,11h0A11,11,0,0,0,280,93.54Z" style="fill: rgb(255, 206, 97);"/><path class="cls-1" d="M305.5,196A80.53,80.53,0,1,1,386,115.47,80.61,80.61,0,0,1,305.5,196Zm0-159.07A78.53,78.53,0,1,0,384,115.47,78.61,78.61,0,0,0,305.5,36.93Zm49.25,25.12L337.86,77.56a6.71,6.71,0,0,0-5.15,2.24,6.9,6.9,0,0,0-2.26,4.92L326.2,89a2.35,2.35,0,0,0-3.26,3.26l-6.22,6.22a5,5,0,0,0-6.47,6.47l-6.86,6.86a5.74,5.74,0,0,0-1.33-.56,2.73,2.73,0,0,0-3.55,3.55,5.73,5.73,0,0,0,.56,1.33L291.21,124a5.69,5.69,0,0,0-2.73-.15,9.07,9.07,0,0,0-4.73,2.59c-2.3,2.3-3.17,5.23-2.44,7.46l-4.8,4.8a7,7,0,0,0-9.49,9.49l-4.45,4.45-10.56,5a2.24,2.24,0,0,0-.62,3.61l5.41,5.41a2.24,2.24,0,0,0,3.61-.62l5-10.56h0l4.45-4.45a7,7,0,0,0,9.49-9.49l4.8-4.8a5.22,5.22,0,0,0,1.62.26,8.54,8.54,0,0,0,5.84-2.7,9.07,9.07,0,0,0,2.59-4.73,5.68,5.68,0,0,0-.15-2.74l7.86-7.86a5.73,5.73,0,0,0,1.33.56,4,4,0,0,0,1,.14,2.67,2.67,0,0,0,1.93-.74,3,3,0,0,0,.6-3,5.74,5.74,0,0,0-.56-1.33l6.86-6.86a5,5,0,0,0,6.47-6.47l6.22-6.22a3.56,3.56,0,0,0,1.37.32,2.19,2.19,0,0,0,1.58-.62h0a2.61,2.61,0,0,0,.3-3l4.24-4.24,0.19,0a7.09,7.09,0,0,0,4.74-2.29,6.71,6.71,0,0,0,2.24-5.15l15.51-16.88A0.84,0.84,0,0,0,354.75,62.06ZM281,93.54h-2a10,10,0,0,0-10-10v-2a10,10,0,0,0,10-10h2a10,10,0,0,0,10,10v2A10,10,0,0,0,281,93.54Zm-7.21-11A12.07,12.07,0,0,1,280,88.75a12.07,12.07,0,0,1,6.21-6.21A12.07,12.07,0,0,1,280,76.34,12.07,12.07,0,0,1,273.79,82.54Zm49.94,66h-2a6,6,0,0,0-6-6v-2a6,6,0,0,0,6-6h2a6,6,0,0,0,6,6v2A6,6,0,0,0,323.73,148.5Zm-4.13-7a8,8,0,0,1,3.13,3.13,8,8,0,0,1,3.13-3.13,8,8,0,0,1-3.13-3.13A8,8,0,0,1,319.6,141.5Zm28.55-37.44a1,1,0,0,0,.69-1.24,45.3,45.3,0,0,0-6.34-13.4,1,1,0,1,0-1.64,1.14,43.31,43.31,0,0,1,6.07,12.81,1,1,0,0,0,1,.73A1,1,0,0,0,348.15,104.06ZM328.86,77.68a1,1,0,0,0-.34-1.37,45.3,45.3,0,0,0-12.46-5.18,1,1,0,0,0-.48,1.94,43.24,43.24,0,0,1,11.92,5A1,1,0,0,0,328.86,77.68Zm34.09,47c0.3-1.85.5-3.74,0.62-5.62a1,1,0,0,0-2-.12c-0.11,1.81-.31,3.64-0.6,5.43a1,1,0,0,0,.83,1.14H362A1,1,0,0,0,363,124.67Zm-0.73-16.75a1,1,0,0,0,.84-1.13,58.53,58.53,0,0,0-12.5-28.42A1,1,0,1,0,349,79.63a56.52,56.52,0,0,1,12.07,27.45,1,1,0,0,0,1,.86h0.15Zm-24.33-40a1,1,0,0,0-.27-1.39,58.06,58.06,0,0,0-22.6-9,1,1,0,0,0-.34,2,56.05,56.05,0,0,1,21.82,8.73A1,1,0,0,0,337.9,67.95Z" style="fill: rgb(32, 31, 45);"/></g></svg>